# Blender v2.78 (sub 0) OBJ File: 'plane.blend'
# www.blender.org
mtllib box.mtl
o Cube_Cube.001
v -1.000000 0.000005 1.000000
v -1.000000 2.000005 1.000000
v -1.000000 0.000005 -1.000000
v -1.000000 2.000005 -1.000000
v 1.000000 0.000005 1.000000
v 1.000000 2.000005 1.000000
v 1.000000 0.000005 -1.000000
v 1.000000 2.000005 -1.000000
v -1.000000 -2.637263 -1.000000
v -1.000000 -2.637263 1.000000
v 1.000000 -2.637263 -1.000000
v 1.000000 -2.637263 1.000000
vt 0.0108 0.1274
vt 0.0108 0.9867
vt 0.8701 0.9867
vt 0.8701 0.1274
vt 0.0108 0.1274
vt 0.0108 0.9867
vt 0.8701 0.9867
vt 0.8701 0.1274
vt 0.0108 0.9867
vt 0.0108 0.1274
vt 0.8701 0.1274
vt 0.8701 0.9867
vt 0.9821 0.1181
vt 0.9237 0.1181
vt 0.9237 0.0175
vt 0.9821 0.0175
vt 0.8700 0.9866
vt 0.0109 0.9866
vt 0.0109 0.1275
vt 0.8700 0.1275
vt 0.8653 0.1181
vt 0.8653 0.0175
vt 0.9237 0.1181
vt 0.9237 0.0175
vn -1.0000 0.0000 0.0000
vn 0.0000 0.0000 -1.0000
vn 1.0000 0.0000 0.0000
vn 0.0000 0.0000 1.0000
vn 0.0000 1.0000 0.0000
usemtl None
s off
f 1/1/1 2/2/1 4/3/1 3/4/1
f 3/5/2 4/6/2 8/7/2 7/8/2
f 7/8/3 8/7/3 6/9/3 5/10/3
f 5/11/4 6/12/4 2/2/4 1/1/4
f 7/13/3 5/14/3 12/15/3 11/16/3
f 8/17/5 4/18/5 2/19/5 6/20/5
f 5/14/4 1/21/4 10/22/4 12/15/4
f 3/23/2 7/13/2 11/16/2 9/24/2
f 1/21/1 3/23/1 9/24/1 10/22/1
