# Blender v2.78 (sub 0) OBJ File: 'striped hole.blend'
# www.blender.org
mtllib striped hole.mtl
o Cube_Cube.001
v -1.000000 -2.000000 1.000000
v -1.000000 0.000000 1.000000
v -1.000000 -2.000000 -1.000000
v -1.000000 0.000000 -1.000000
v 1.000000 -2.000000 1.000000
v 1.000000 0.000000 1.000000
v 1.000000 -2.000000 -1.000000
v 1.000000 0.000000 -1.000000
v -1.000000 0.006606 1.086547
v 1.000000 0.006606 1.086547
v -1.000000 0.006606 1.206599
v 1.000000 0.006606 1.206599
v -1.000000 0.006606 -1.195819
v 1.000000 0.006606 -1.195819
v -1.000000 0.006606 -1.075766
v 1.000000 0.006606 -1.075766
vt 0.0001 0.3334
vt 0.0001 0.0001
vt 0.3334 0.0001
vt 0.3334 0.3334
vt 0.3334 0.6666
vt 0.3334 0.9999
vt 0.0001 0.9999
vt 0.0001 0.6666
vt 0.8838 -0.0008
vt 0.8838 0.9991
vt 0.8238 0.9991
vt 0.8238 -0.0008
vt 0.9440 -0.0008
vt 0.9440 0.9991
vt 0.8839 0.9991
vt 0.8839 -0.0008
vn 0.0000 0.0000 -1.0000
vn 0.0000 0.0000 1.0000
vn 0.0000 -1.0000 0.0000
usemtl None
s off
f 3/1/1 4/2/1 8/3/1 7/4/1
f 5/5/2 6/6/2 2/7/2 1/8/2
f 3/1/3 7/4/3 5/5/3 1/8/3
f 9/9/3 10/10/3 12/11/3 11/12/3
f 13/13/3 14/14/3 16/15/3 15/16/3
